<svg xmlns="http://www.w3.org/2000/svg" viewBox="0 0 500 500"><g id="freepik--Character--inject-3"><g id="freepik--character--inject-3"><g id="freepik--Bottom--inject-3"><path d="M209.05,260.36c-.73-12.29-2.4-28.54-4-42.6a129.43,129.43,0,0,0-6.75-29.16c-7,12.05-19.18,25.77-19.18,25.77l-28.81-.65s10.45,34.87,16.44,54.79c-10.47,6.63-16.58,14.17-23.25,27.43-4.3,8.54-7.31,15.05-11.84,25-2.35,5.16-5.72,11.73-8.39,14.28l-.3.25,0,0c-2.19,1.78-5.61,2.54-8.69,5.37l0,0a6.66,6.66,0,0,0-1.6,7.14c.12.34.24.68.35,1.07.48,1.75,2.23,5.06,2.53,8.47.28,3.13-1.3,6.87-2.54,11s-1,6.53,1.07,10.12c1.6,2.79,7.86,9.67,13.27,11.78,8.64,3.37,11.47.82,10.43-3.29s-2.92-7.47-3.66-10.46a24.93,24.93,0,0,1-.59-10.77c.76-4.38,2-7.72,3.75-13.49,1-3.44,1.14-6.48,13.08-17,0,0,31.87-26,41-34.44C208.54,285.11,210.35,282.39,209.05,260.36Z" style="fill:#ffbda7"></path><path d="M155.09,229.7c3.54,11.78,8.3,27.64,11.65,38.81-9.47,6-15.38,12.76-21.36,23.81l7,16.75c-1.77,3.93-1.6,16.14.24,24.34,7.52-6.16,31-25.49,38.68-32.51l1.22-1.12c-.77-19.3-3.68-42.76-7.44-64.29,8.5-7.2,9.75-13.79,10.19-20l-16.18-1.11-28.81-.65,0,.09Z" style="fill:#f0997a"></path><path d="M164.19,261c8.92,3.14,35.81,4,45.15-7.37,0,0-.25-22.22-3.05-38a119.74,119.74,0,0,0-8-27l-54.41-9.68L150,215.24Z" style="fill:#37474f"></path><path d="M185.1,235.49c8.5-7.2,9.75-13.79,10.19-20l-16.18-1.11-28.81-.65,0,.09,4.77,15.89,9.43,31.41c5,1.65,15,2.62,24.68,1.36C188,253.43,186.64,244.3,185.1,235.49Z" style="fill:#263238"></path><path d="M112.38,342.24a4.87,4.87,0,0,0-2.77,2.85c-.6,2.27.39,6.16,1.76,9.83s1.85,5.17.93,8-2.26,6.34-1.78,11.5,2.84,11.83,10.52,17.41c6.28,4.57,11.72,4.29,13.78,3.89s2.49-3.28,2.49-3.28Z" style="fill:#263238"></path><path d="M123.37,335.07c-.67.66-1.19,2.23-1.41,4.31-.45,4.14,3.68,10.21,4.91,11.59a4.2,4.2,0,0,1,3.25-1.2c2.7,0,7.37.32,7.85,1.51s-3.43,9.7-4,16a27,27,0,0,0,2.77,14.61c1.64,3.22,4.45,7.59-.07,11.59-2.67.81-13.73-.5-20.33-9.77-5.86-8.23-3.37-16.81-2-21.21s-.64-8.08-2-13.46c-.59-2.35-1.2-4.11,0-6.81,2.88-3.69,7.32-5.85,9.38-7.22A1.69,1.69,0,0,1,123.37,335.07Z" style="fill:#37474f"></path><path d="M116.36,383.72c.82-2.51,4.78-6,9.89-7.12,6.28-1.33,8.49-.07,9.91,2,1.18,1.75,7.58,11.76.8,15C134.77,395.05,124,395.15,116.36,383.72Z" style="fill:#fafafa"></path><path d="M126.87,351a2.25,2.25,0,0,1,.79,1.37,4.86,4.86,0,0,1-.19,1.58c-.27,1-.5,2-.73,3-.49,2-.94,4-1.31,6a58.9,58.9,0,0,0-.79,6.05,27.81,27.81,0,0,0,.22,6.11,18.71,18.71,0,0,1-1-6.13,34.8,34.8,0,0,1,.57-6.2,53.41,53.41,0,0,1,1.48-6c.3-1,.66-2,1-2.93a5.14,5.14,0,0,0,.4-1.42A2.32,2.32,0,0,0,126.87,351Z" style="fill:#263238"></path><path d="M123.6,373.49c2.47-1.06,9.21-1.45,10.62.65l.14.71a3.28,3.28,0,0,0-.09-2.2c-.46-1.3-5.07-2.67-10.76-.73C122.91,372.5,122.85,373.74,123.6,373.49Z" style="fill:#fafafa"></path><path d="M123.8,368.21c2.4-1.2,8.58-1.73,10.11.28l0,.59a1.92,1.92,0,0,0,.11-2c-.54-1.28-4.82-2.71-10.39-.44C123.05,367.26,123.06,368.5,123.8,368.21Z" style="fill:#fafafa"></path><path d="M124.47,362.85c2.47-1,8.75-1.28,10.1.88l-.15.7a2.41,2.41,0,0,0,.48-1.9c-.32-1.39-4.8-3-10.49-1.26C123.8,361.83,123.72,363.07,124.47,362.85Z" style="fill:#fafafa"></path><path d="M125.28,358.29c2.47-1,9.15-1.35,10.5.81l-.17.71a2.81,2.81,0,0,0,.5-2c-.33-1.4-5.19-2.85-10.89-1.09C124.62,357.27,124.52,358.51,125.28,358.29Z" style="fill:#fafafa"></path><path d="M212.45,426.69a16.61,16.61,0,0,0-3.37-2.43l-.5-.32c-2.14-1.35-4.12-2.9-6.26-4.25a33,33,0,0,1-6-4.61c-3.24-3.26-4.36-6.95-6.13-11.19-.23-.56-2.47-2.62-2.67-10.21-.43-16.66,1.29-47.57,1.45-60.28.43-34.16-.63-38.56-2.81-60l-6-41s9.85-3.44,15.59-18c2.85-7.25,1.64-17.11,2.56-25.83,0,0-8.31,5.31-27.8,4.79-20.79-.55-25.09-11.78-25.09-11.78-1.93,5.21-4.47,9.79-10,24.36-1.79,4.71-6.08,19.85-3.65,30.46,2.33,10.12,3.93,15.21,8.87,29.92,5.65,16.84,14.76,42.27,14.76,42.27-2,11.57-1.32,17.81,3.9,42.12,2.27,10.61,5,22.77,6.24,29s2.08,11.6,1.95,13.36c-.55,7.36-4.7,16.93,2.14,22,1.36,1,2.91,1.68,4.34,2.57,4.63,2.87,7.7,7.67,11.87,11.17a28.68,28.68,0,0,0,10.68,5.56,17.24,17.24,0,0,0,4.9,1.12,42.39,42.39,0,0,0,6.46-.69,11.42,11.42,0,0,0,3.8-1.21,4.5,4.5,0,0,0,2.28-3.13A4.71,4.71,0,0,0,212.45,426.69Z" style="fill:#ffbda7"></path><path d="M135.75,200c-4.73,9.38-5.74,17.39-6,26.94s3.35,20,6,28.62,8.13,21.84,8.13,21.84,9,3.07,23.53,0c14.24-3,17.94-9.38,17.94-9.38l-3.16-33.84s7.52-4.55,13.46-15.41,2.64-30.18,2.64-30.18l-54.41-9.68A144.26,144.26,0,0,1,135.75,200Z" style="fill:#455a64"></path><path d="M164.07,410.78c-.44.66-.51,2.69.05,4.92.93,1.29,2.41,2.32,6,4.36s4.75,4,6.31,6.74a29.51,29.51,0,0,0,5.46,6.8c4,3.72,10,5.87,20.06,5.62,6.26-.16,11.45-2.53,12.85-4.26a4.56,4.56,0,0,0,1-3.64Z" style="fill:#263238"></path><path d="M166.19,394.29c0-.94.94-1.92,1.26-1.58.06,1-.16,3.72.52,4.74a16,16,0,0,0,9.22,6s-.31-1,2-1.84,8.29-2.82,9.48-2.19,2.3,6.8,6.13,12.28a33,33,0,0,0,13.23,10.62c3.52,1.49,7.48,4.49,7.32,9.11-3.8,5-13.65,5.29-19.61,4.66-10.58-1.12-15.17-7.75-18-11.72s-3.81-4.6-8.55-8c-2.07-1.5-4.24-2.59-5.14-5.56C163.24,403.52,166,402.42,166.19,394.29Z" style="fill:#37474f"></path><path d="M190,434.79c-.46-3.83,1.5-8.66,7.63-11.58s8.72-2.17,10.79-1.35,9.2,4.54,7.2,9.78C214.82,434.26,202,439.47,190,434.79Z" style="fill:#fafafa"></path><path d="M177.19,403.46a2.44,2.44,0,0,1,1.56.57,5.47,5.47,0,0,1,.93,1.41l1.44,2.92c.95,1.94,1.95,3.86,3,5.73a58.07,58.07,0,0,0,3.47,5.43,29.31,29.31,0,0,0,4.32,4.8A19.53,19.53,0,0,1,187,420a36.41,36.41,0,0,1-3.75-5.4,56.22,56.22,0,0,1-2.9-5.88c-.43-1-.83-2-1.17-3.06a5.74,5.74,0,0,0-.64-1.42A2.51,2.51,0,0,0,177.19,403.46Z" style="fill:#263238"></path><path d="M189,423.46c1.94-1.9,10.41-5.41,13.19-4.47l.65.43a3.16,3.16,0,0,0-1.51-1.57c-1.29-.77-8.61.47-13.4,4.47C187.65,423,188.35,424,189,423.46Z" style="fill:#fafafa"></path><path d="M185.64,419.25c1.94-1.9,9.33-4.91,12.11-4l.54.52a2.62,2.62,0,0,0-1.41-1.65c-1.29-.77-7.52,0-12.31,4C184.3,418.82,185,419.77,185.64,419.25Z" style="fill:#fafafa"></path><path d="M183.37,414.85c2-1.85,8.5-4.49,11.25-3.47l.4.6a2.69,2.69,0,0,0-1-1.6c-1.21-.91-6.77-.57-11.67,3.3C182.05,414.38,182.71,415.35,183.37,414.85Z" style="fill:#fafafa"></path><path d="M181.17,411c2-1.84,8.5-4.48,11.25-3.46l.33.65a2.49,2.49,0,0,0-.95-1.66c-1.21-.9-6.76-.56-11.66,3.31C179.85,410.56,180.51,411.54,181.17,411Z" style="fill:#fafafa"></path></g><g id="freepik--Top--inject-3"><g id="freepik--Backpack--inject-3"><path d="M96.45,161.83c.65.3,7.37-1.27,13.68-3.72V134.23s-8.21.82-10.82,10.19C94.81,160.56,96.45,161.83,96.45,161.83Z" style="fill:#263238"></path><path d="M145.85,123.1c6-.1,12.9,2.85,15,7.47.35.79,2.84,6.87,2.84,6.87,3.35,16.13,9.38,57.68,5.14,62.83-6.36,7.71-37.63,22.82-51.34,22.39-11.31-.35-22.22-10.64-23.8-13.75-5.16-10.19,8.39-67,12-72.68C111.47,127,138.27,123.23,145.85,123.1Z" style="fill:#6C63FF"></path><path d="M168.82,200.27c-6.36,7.71-37.63,22.82-51.34,22.39a24.66,24.66,0,0,1-8.91-2.14c3.2,1.51,7,0,8-4.18s2.77-37.43,2.77-65.92l44.35-13C167,153.57,173.06,195.12,168.82,200.27Z" style="opacity:0.18"></path><path d="M104.24,139.27a15.24,15.24,0,0,1,1.41-3.56c5.82-9.24,32.62-13,40.2-13.13,6-.1,12.9,2.84,15,7.47.33.75,2.84,6.87,2.84,6.87-11.88,6.31-41.6,12.72-44.75,11.57C115.05,147.08,104.24,139.27,104.24,139.27Z" style="opacity:0.5"></path><path d="M96.11,183.18c.28-.13,4.52-3.09,5-3.32.86-.4,12.84,8.3,13.92,9.75.76,1-1.31,21.66-1.83,22.72-.19.38-4.82,2.94-5,3.32-.51,1.06-13.17-7.8-13.9-9.87S94.84,183.77,96.11,183.18Z" style="fill:#6C63FF"></path><path d="M96.11,183.18c.28-.13,4.52-3.09,5-3.32.86-.4,12.84,8.3,13.92,9.75.76,1-1.31,21.66-1.83,22.72-.19.38-4.82,2.94-5,3.32-.51,1.06-13.17-7.8-13.9-9.87S94.84,183.77,96.11,183.18Z" style="opacity:0.18"></path><path d="M110,192.93c.76,1-1.31,21.66-1.83,22.72s-13.17-7.8-13.9-9.87.55-22,1.82-22.6C97,182.78,108.94,191.48,110,192.93Z" style="fill:#6C63FF"></path><path d="M101.11,179.86c-.48.22-4.71,3.19-5,3.32.85-.4,12.83,8.3,13.91,9.74l5-3.31C114,188.16,102,179.46,101.11,179.86Z" style="opacity:0.4"></path><path d="M110,192.93c.76,1-1.31,21.66-1.83,22.72s-13.17-7.8-13.9-9.87.55-22,1.82-22.6C97,182.78,108.94,191.48,110,192.93Z" style="opacity:0.30000000000000004"></path><path d="M115,189.61c-.89-.63-3.67.73-4.88,1.7s-2.66,5.67-5.72,6.32-7.22-3.52-8-6.13-1.69-8.05-.15-9.93,4.15-2.84,6.26-1.61S114.85,187.23,115,189.61Z" style="fill:#6C63FF"></path><path d="M115,189.61c-.89-.63-3.67.73-4.88,1.7s-2.66,5.67-5.72,6.32-7.22-3.52-8-6.13-1.69-8.05-.15-9.93,4.15-2.84,6.26-1.61S114.85,187.23,115,189.61Z" style="opacity:0.1"></path><path d="M101.69,192a2.25,2.25,0,0,1,1,2.13.92.92,0,0,1-1.42.76,2.2,2.2,0,0,1-1-2.14C100.4,191.92,101,191.58,101.69,192Z" style="fill:#37474f"></path><path d="M119.33,149.9s-4.18-2.88-9.25-5.8-7.91-3.94-9.71,2a132.91,132.91,0,0,0-3.92,15.78c-1-.47-.87-2.22-.19-9.73,1-10.93-.4-15.81,10.91-20.18,17.54-6.79,32.27-12.12,42.3-9.87s12.39,7.87,14.21,14.87C163.68,136.92,151.49,148,119.33,149.9Z" style="fill:#37474f"></path></g><path d="M181.06,122.6c8.16-.16,13.38.91,19.63,8,6.4,7.27,17.46,19.32,27.12,30.48l23.38-11.42,10.39,13.44s-25.93,18.29-32.25,20.26-7.78.42-13-3.76c-5.85-4.64-26.06-23.2-26.06-23.2Z" style="fill:#ffbda7"></path><path d="M188.14,122.39c5.56,1.07,7.86,2.36,13.88,8.93s25.79,29.76,25.79,29.76-2.86-.92-7.48,6a17.58,17.58,0,0,0-2.85,13.43s-2.26-.41-14.55-11.35-13.11-11.39-13.11-11.39Z" style="fill:#6C63FF"></path><path d="M188.14,122.39c5.56,1.07,7.86,2.36,13.88,8.93s25.79,29.76,25.79,29.76-2.86-.92-7.48,6a17.58,17.58,0,0,0-2.85,13.43s-2.26-.41-14.55-11.35-13.11-11.39-13.11-11.39Z" style="fill:#fff;opacity:0.6000000000000001"></path><path d="M274.05,120.56h0l-1.75-1.25v0a1.88,1.88,0,0,0-1.69,0l-17.1,6.47a6.5,6.5,0,0,0-3.6,4.07l-9.12,37.69a1.67,1.67,0,0,0,.41,1.84h0l1.81,1.28v0a1.85,1.85,0,0,0,1.71,0l17.1-6.47a6.46,6.46,0,0,0,3.59-4.07c1.8-7.41,7.34-30.28,9.13-37.69C274.78,121.52,274.56,120.86,274.05,120.56Z" style="fill:#455a64"></path><path d="M253.48,128.22a6.46,6.46,0,0,0-1.78,2.88l-9.13,37.68a1.77,1.77,0,0,0,.35,1.81l-1.7-1.2v0a1.66,1.66,0,0,1-.41-1.84L250,129.84a6.18,6.18,0,0,1,1.63-2.72Z" style="fill:#263238"></path><path d="M242.58,168.78l9.12-37.69a6.5,6.5,0,0,1,3.6-4.07l17.1-6.47c1.59-.6,2.55.25,2.15,1.9-1.79,7.41-7.33,30.28-9.13,37.69a6.46,6.46,0,0,1-3.59,4.07l-17.1,6.47C243.14,171.28,242.18,170.43,242.58,168.78Z" style="fill:#37474f"></path><path d="M252.46,138.74l1.71-7.06a1.29,1.29,0,0,1,.67-.76l3.21-1.21c.29-.11.47,0,.4.36-.34,1.38-1.37,5.66-1.71,7.05a1.21,1.21,0,0,1-.67.76l-3.2,1.21C252.57,139.21,252.39,139.05,252.46,138.74Z" style="fill:#455a64"></path><path d="M254.49,133.3a3,3,0,0,1,1.72-1.88c.77-.29,1.24.08,1.06.83a3.09,3.09,0,0,1-1.72,1.89C254.78,134.43,254.31,134.05,254.49,133.3Z" style="fill:#263238"></path><path d="M253.67,136.86a3.09,3.09,0,0,1,1.72-1.89c.77-.29,1.24.09,1.06.84a3.07,3.07,0,0,1-1.72,1.88C254,138,253.49,137.61,253.67,136.86Z" style="fill:#263238"></path><path d="M273.45,142.66c1.67-2.48,1.51-2.8.53-4a7.66,7.66,0,0,0-6.32-3c-2.13.12-4.29.13-5.38.73s-.09,2.9,2.71,3.44c4.42.87,4.43,2.06,4.43,2.06a56.23,56.23,0,0,0-5.7-.84c-1.62,0-4.57.81-6.41,1.15s-2.15,2.74,1,3.48l-3.38.63c-2.37.45-3.14,1.73-1.24,3.15a3.48,3.48,0,0,0,2.18.75s-2.53.07-2.56.91c-.09,2.42,1.49,3,6.64,4.35,4.92,1.29,6,3.88,5.07,5.72,0,0,1.93-1.2,3.65-2.45,1.26-.92,2.31-1.94,1.68-3.93,0,0,2.79,0,2.91-1.75a8.8,8.8,0,0,0-.77-3.67,3,3,0,0,0,1.46-2.9,5,5,0,0,0-1.1-3Z" style="fill:#ffbda7"></path><path d="M258.32,145.65a16.21,16.21,0,0,1,3.08-.42,10,10,0,0,1,3,.87,36,36,0,0,1,5.45,2.73,36,36,0,0,1-5.79-1.9,16.08,16.08,0,0,0-2.75-1C260.4,145.8,259.33,145.81,258.32,145.65Z" style="fill:#f0997a"></path><path d="M255.89,150.18a6.81,6.81,0,0,1,3.33-.19,17.51,17.51,0,0,1,3.2.92,31.45,31.45,0,0,1,5.89,2.94,63.79,63.79,0,0,1-6.21-2.1A17.45,17.45,0,0,0,255.89,150.18Z" style="fill:#f0997a"></path><path d="M131,209.4c5.1-14.85,8.36-23.43,8.5-28.14,0,0-4.28-23.69-4.89-29.28-1.6-14.53,1-21.35,3.93-22.89,1.69-.9,8.62-2.94,10.84-3.57,10.06-2.86,24.47-3.22,33.84-3.08,3.51.19,4.59.3,4.59.3a86.74,86.74,0,0,1,12.63,11.52c7.45,8.64,9.78,14.45,8.59,23.33a21.33,21.33,0,0,1-4.93,10.46c-.57,4.3-1.51,16.49-1.51,16.49.11,4.79-.22,4.68,2.2,16.21C197.19,223.47,146.42,222.05,131,209.4Z" style="fill:#fafafa"></path><g id="freepik--Head--inject-3"><path d="M153.76,63.14a12.68,12.68,0,0,0-14,2.92c-3.48,3.75-4.29,9.19-4.85,14.28q-1.47,13.23-2.19,26.52c-.21,4-1,7.89-1.3,11.87-.4,4.48-.73,9-1,13.44a5,5,0,0,0,.61,3.32,4.41,4.41,0,0,0,2.74,1.38,20.31,20.31,0,0,0,14.55-2.53c6.81-4.16,10.61-12.2,11.13-20.15.33-5.16-.55-10.31-1.42-15.41a105.4,105.4,0,0,0-2.33-11.14c-.66-2.32-1.47-4.59-2-6.94a29.9,29.9,0,0,1,.35-14.59" style="fill:#263238"></path><path d="M148.62,63.06a14.75,14.75,0,0,0-4.88,7.85,4.15,4.15,0,0,0,0,2.49,3.06,3.06,0,0,0,3.2,1.66,6.08,6.08,0,0,0,3.36-1.8,12.75,12.75,0,0,0,3.83-7.21c.2-1.27.07-3.29-1.15-4.08C151.57,61.07,149.71,62.15,148.62,63.06Z" style="fill:#6C63FF"></path><path d="M196.16,82.26c3-6.25.51-14.73-2.67-18.77-4.6-5.85-12-8.53-23.16-8.18-8.52.27-18.83,3.76-20.68,12.44-8,3.75-5.54,14.78-3.57,19.44,4.12,9.81,10.16,17.56,10.12,22.7Z" style="fill:#263238"></path><path d="M193.55,105.91c-1.9,4.67-5.11,8.13-9.58,9a29.07,29.07,0,0,1-4.55.22l-.24,8.49c1.61,2.79,4.5,10.75,4,16.7-15.13-3.37-27.68-19-27.68-19l.64-20.87s-2.85,3-7.29-.05c-3-2.13-5.63-7.73-2.7-12.18s7.75-2.43,9.09-1,1.94,4.09,3.1,3.74a4.19,4.19,0,0,0,2.87-2.75c.87-2,1.52-4.61,1.75-9.14A3.19,3.19,0,0,0,165,76.42c.71-3,1.61-2.9,1.76-5.23,9.79-2.74,23.18-2.66,27.12.58,2.2,4.16,1.73,12.52,2,18A39.09,39.09,0,0,1,193.55,105.91Z" style="fill:#ffbda7"></path><path d="M179.42,115.09c-4.95-.43-14.87-3-17.44-5.9s-3.54-8.56-3.54-8.56.19,7.18,2.15,10.4,7.11,4.75,10.24,5.63a67.78,67.78,0,0,0,8.51,1.46Z" style="fill:#f0997a"></path><polygon points="181.22 83.55 182.33 97.35 189.14 94.95 181.22 83.55" style="fill:#f0997a"></polygon><path d="M177.94,102a1.69,1.69,0,1,1-1.53-1.82A1.68,1.68,0,0,1,177.94,102Z" style="fill:#b16668"></path><path d="M191.67,86.77c.34,1.1-.43,1.43-1.49,1.76s-2,.53-2.35-.56a2,2,0,1,1,3.84-1.2Z" style="fill:#263238"></path><path d="M188.12,85.75a5.22,5.22,0,0,1,1.52-.5,4.31,4.31,0,0,1,1.56,0,4.85,4.85,0,0,1,1.57.51s.07.14,0,.13c-.43-.06-.8-.14-1.42-.18a7.36,7.36,0,0,0-1.75.16,7.23,7.23,0,0,0-2,.68c-.21.09-.61.3-.65.33s-.11-.12-.07-.17A3.49,3.49,0,0,1,188.12,85.75Z" style="fill:#263238"></path><path d="M188.76,80l4.46,2A2.57,2.57,0,0,0,192,78.7,2.38,2.38,0,0,0,188.76,80Z" style="fill:#263238"></path><path d="M172.17,87.2c-.3,1.11.48,1.42,1.55,1.71s2,.45,2.33-.66a2,2,0,1,0-3.88-1Z" style="fill:#263238"></path><path d="M175.68,86a5.22,5.22,0,0,0-1.54-.44,4.3,4.3,0,0,0-1.56,0,5,5,0,0,0-1.55.57s-.06.14,0,.13a13.16,13.16,0,0,1,1.4-.23,8.16,8.16,0,0,1,3.78.69c.21.09.62.28.66.31s.1-.12.07-.17A3.63,3.63,0,0,0,175.68,86Z" style="fill:#263238"></path><path d="M169.08,81.42l3.81-3.09a2.57,2.57,0,0,1-.38,3.54A2.4,2.4,0,0,1,169.08,81.42Z" style="fill:#263238"></path><path d="M190.16,60.19l-22.38,8.68C151,75.48,154.68,88.39,158.2,91c10-4.21,9.33-14.16,8.59-19.84,5.06,4.74,13.49,8.24,17.45,8.65-1.84-2.21-3.37-7.67-3.37-7.67a20.21,20.21,0,0,0,7.85,8.51c6.15,3.54,10.34,1.17,10.34,1.17S201.15,66.85,190.16,60.19Z" style="fill:#263238"></path></g><path d="M157.64,120a52.3,52.3,0,0,0,2.27,9.36c2,6.48,2.75,11.66,3.14,25.54s-4.65,78.72-3.16,94.42c-10.31,0-26.76-6.85-34.44-15.16A177.54,177.54,0,0,1,131,202.75c3.69-14,7.53-15.14,6.74-22.65s-7.9-37.38-1.8-52.62a86.94,86.94,0,0,0,10.64-2.06C156.38,123.05,157.64,120,157.64,120Z" style="fill:#6C63FF"></path><path d="M157.64,120a52.3,52.3,0,0,0,2.27,9.36c2,6.48,2.75,11.66,3.14,25.54s-4.65,78.72-3.16,94.42c-10.31,0-26.76-6.85-34.44-15.16A177.54,177.54,0,0,1,131,202.75c3.69-14,7.53-15.14,6.74-22.65s-7.9-37.38-1.8-52.62a86.94,86.94,0,0,0,10.64-2.06C156.38,123.05,157.64,120,157.64,120Z" style="fill:#fff;opacity:0.4"></path><path d="M179.82,117.94l.61,5.16c0,4,7.75,7.81,13.48,17.19s6.64,18.53,6.25,30.51,2.73,56.92,4,62.78a16.27,16.27,0,0,0,6.81-9.77c-.95-7.11-2.66-19.47-3.69-23.79s-.95-11.39-.95-20.26a79.68,79.68,0,0,1,.71-11.49s5.67-7,2.35-20.12-21.2-25.76-21.2-25.76-.55-.21-3.5-.87C182.44,121,179.82,117.94,179.82,117.94Z" style="fill:#6C63FF"></path><path d="M179.82,117.94l.61,5.16c0,4,7.75,7.81,13.48,17.19s6.64,18.53,6.25,30.51,2.73,56.92,4,62.78a16.27,16.27,0,0,0,6.81-9.77c-.95-7.11-2.66-19.47-3.69-23.79s-.95-11.39-.95-20.26a79.68,79.68,0,0,1,.71-11.49s5.67-7,2.35-20.12-21.2-25.76-21.2-25.76-.55-.21-3.5-.87C182.44,121,179.82,117.94,179.82,117.94Z" style="fill:#fff;opacity:0.4"></path><path d="M155.7,115.08c-1.89,6.84-5.9,9.45-5.9,9.45s2.7,12.6,2.22,18.79-1.72,12.18,0,12.14a45.94,45.94,0,0,0,6.86-1.61s-4.12,6-3.72,7.92,6.79,23.14,6.79,23.14,2.67-24.58,2.26-31.79-1.72-20.44-4.28-28A82.72,82.72,0,0,0,155.7,115.08Z" style="fill:#6C63FF"></path><path d="M200.36,181.48c.36-6.92,4-24.27,4.45-27.74s-4.45-6.61-4.45-6.61,3,.76,3.94,0-5-9.41-10.08-15.12-14.83-15.7-14.83-15.7l-.21,7.27c2.71,2.94,5.78,6.12,7.68,8.43C192.3,138.65,199.61,147.34,200.36,181.48Z" style="fill:#6C63FF"></path><path d="M145.45,125.58s10.56,9,12.23,26.43c4.21,44-28,53-28,53a85.86,85.86,0,0,1,2.64-11.08s19-17.35,16.85-39.83c-1.5-16-9.17-25.59-13.24-26.62A95.36,95.36,0,0,1,145.45,125.58Z" style="fill:#37474f"></path><path d="M124.11,205.67c4.2-1.47,7-3.24,11.27-7.17,7.94-7.28,8.38-8.36,15-14.79,2.24-2.17,4.24-4.34,5.19-5.32s3.38-2.8,5-5.48c1.07-1.81,2.49-4.1,2.68-6.26.21-2.38,1-4.83.4-7.24-.17-.69-.43-1.36-.56-2.07a16,16,0,0,1-.14-2.94,14,14,0,0,0-.86-5.07,9,9,0,0,0-2.49-3.52,3.13,3.13,0,0,0-3.12-.93c.31,1.27.53,2.34.81,3.83a10.67,10.67,0,0,1-2.41,5.75c-2.43,3.52-4.56,5.38-4.92,4.71s.53-2.85,0-6.29c-.48-3.28-1.5-4.64-2.57-4.85-1.7-.35-1.6,1.47-2.18,4.26-.68,3.33-2,5.2-2,10.07.05,4.26.79,5.21-1.51,7.23-1.31,1.15-5.82,3.95-5.82,3.95s1.08-4.69,2.86-12.7C142.19,145.3,142.16,130,136,128c-7.4,2.18-14.61,6.36-17.87,19-3.47,13.49-3.48,15.51-6.4,42.12C109.6,208.56,117.71,207.9,124.11,205.67Z" style="fill:#ffbda7"></path><path d="M135.89,173.54c-5.25,4.28-16.86,10.67-18.1,17.19,0,0,0-5.13,6.86-11.61a96.61,96.61,0,0,1,12.23-9.92Z" style="fill:#f0997a"></path><path d="M136,127.48c-5.18,1.21-11.69,4.67-14.74,10.35s-3.85,9.74-5.78,18-4.94,37.22-4.06,38.42c5.42-8.19,12.24-15.63,24.51-20.75,0,0,3.31-12,4.63-20.14S144.42,131.41,136,127.48Z" style="fill:#6C63FF"></path><path d="M136,127.48c-5.18,1.21-11.69,4.67-14.74,10.35s-3.85,9.74-5.78,18-4.94,37.22-4.06,38.42c5.42-8.19,12.24-15.63,24.51-20.75,0,0,3.31-12,4.63-20.14S144.42,131.41,136,127.48Z" style="fill:#fff;opacity:0.6000000000000001"></path></g></g></g><g id="freepik--Screen--inject-3"><g id="freepik--Window--inject-3"><g id="freepik--window--inject-3"><path d="M427.45,133.44V411.23c0,2.35-1,3.76-2.67,3.76a5,5,0,0,1-2.48-.79L309.08,348.84a13.88,13.88,0,0,1-6.18-10.72v-188l-1,.3c-1.57.39-5.87.22-10.08-1.53a17.28,17.28,0,0,1-9-8.06,15.18,15.18,0,0,0,13.64-1.57,16,16,0,0,0,5.42-5.36,7.63,7.63,0,0,0,1-3V62.4c0-3.14,1.38-5,3.68-5a6.76,6.76,0,0,1,3.26,1l.65.38,31.16,18,.13.08a3.69,3.69,0,0,1,1.43,2.65A5.8,5.8,0,0,0,345.94,84l37.12,21.43a3.11,3.11,0,0,0,1.55.46,2.24,2.24,0,0,0,2.2-2.46.72.72,0,0,1,.1-.46.82.82,0,0,1,.44.15l2.07,1.19,31.85,18.39a10.16,10.16,0,0,1,1.24.85l.37.33.21.2A14,14,0,0,1,427.45,133.44Z" style="fill:#fafafa"></path><path d="M423.78,123.36c-.22-.2-.42-.39-.64-.57a10.59,10.59,0,0,0-1.36-.93l-31.84-18.39-2.08-1.2a1.9,1.9,0,0,0-.93-.28c-.68,0-1.14.54-1.14,1.48s-.48,1.44-1.18,1.44a2.09,2.09,0,0,1-1-.33L346.46,83.16a4.76,4.76,0,0,1-2.22-3.67A4.72,4.72,0,0,0,342.38,76l-.22-.13L311,57.9l-.66-.39a7.64,7.64,0,0,0-3.77-1.15c-2.78,0-4.7,2.22-4.7,6v68.47c-.12,2.35-2.58,5.5-5.94,7.59a14.1,14.1,0,0,1-13.9,1l-1.18-.59.5,1.23a18,18,0,0,0,10.06,9.77,23.28,23.28,0,0,0,8.54,1.79,10.29,10.29,0,0,0,1.92-.16V338.12a14.82,14.82,0,0,0,6.69,11.6l113.21,65.37a6.14,6.14,0,0,0,3,.92c2.19,0,3.69-1.75,3.69-4.78V133.44A14.94,14.94,0,0,0,423.78,123.36Zm3.67,287.87c0,2.35-1,3.76-2.67,3.76a5,5,0,0,1-2.48-.79L309.08,348.84a13.88,13.88,0,0,1-6.18-10.72v-188l-1,.3c-1.57.39-5.87.22-10.08-1.53a17.28,17.28,0,0,1-9-8.06,15.18,15.18,0,0,0,13.64-1.57,16,16,0,0,0,5.42-5.36,7.63,7.63,0,0,0,1-3V62.4c0-3.14,1.38-5,3.68-5a6.76,6.76,0,0,1,3.26,1l.65.38,31.16,18,.13.08a3.69,3.69,0,0,1,1.43,2.65A5.8,5.8,0,0,0,345.94,84l37.12,21.43a3.11,3.11,0,0,0,1.55.46,2.24,2.24,0,0,0,2.2-2.46.72.72,0,0,1,.1-.46.82.82,0,0,1,.44.15l2.07,1.19,31.85,18.39a10.16,10.16,0,0,1,1.24.85l.37.33.21.2a14,14,0,0,1,4.36,9.32Z" style="fill:#6C63FF"></path><path d="M333.05,89.48c0,.59-.31.88-.69.67a1.83,1.83,0,0,1-.68-1.46c0-.58.3-.88.68-.66A1.81,1.81,0,0,1,333.05,89.48Z" style="fill:#455a64"></path><path d="M332.36,86.3a1,1,0,0,0-1.6.55.71.71,0,0,0,.08.57h0c.13.23.32.28.4.1a.72.72,0,0,1,1.12-.39,2.89,2.89,0,0,1,1.13,1.69c.08.27.27.44.4.36h0a.46.46,0,0,0,.07-.48A4.07,4.07,0,0,0,332.36,86.3Z" style="fill:#455a64"></path><path d="M332.36,84.6a1.63,1.63,0,0,0-2.45.66.67.67,0,0,0,.06.59h0c.12.22.31.28.39.12a1.33,1.33,0,0,1,2-.55,5.24,5.24,0,0,1,2,2.86c.08.26.27.42.39.34h0c.11-.07.14-.3.06-.53A6.42,6.42,0,0,0,332.36,84.6Z" style="fill:#455a64"></path><path d="M335.58,88.15a.24.24,0,0,1-.22-.14L333.92,85a.24.24,0,0,1,.12-.33.25.25,0,0,1,.33.12l1.44,3.05a.25.25,0,0,1-.12.34Z" style="fill:#6C63FF"></path><path d="M334.14,87.32a.27.27,0,0,1-.18-.08.25.25,0,0,1,0-.35l1.44-1.39a.25.25,0,0,1,.35,0,.24.24,0,0,1,0,.35l-1.44,1.39A.29.29,0,0,1,334.14,87.32Z" style="fill:#6C63FF"></path><path d="M324,84.2a.19.19,0,0,1,.09.12.29.29,0,0,1,0,.16V85a.16.16,0,0,1,0,.12s-.05,0-.09,0l-2.09-1.21a.26.26,0,0,1-.09-.11.42.42,0,0,1,0-.16V78.9a.21.21,0,0,1,0-.12.07.07,0,0,1,.09,0L323.93,80a.35.35,0,0,1,.09.11.5.5,0,0,1,0,.16v.53a.16.16,0,0,1,0,.11.06.06,0,0,1-.09,0L322.39,80v1.17l1.43.83a.17.17,0,0,1,.09.11.29.29,0,0,1,0,.16v.52a.16.16,0,0,1,0,.12s-.05,0-.09,0l-1.43-.82v1.21Z" style="fill:#455a64"></path><polygon points="308.58 76.66 308.58 75.2 309.84 75.92 309.84 77.39 308.58 76.66" style="fill:#455a64"></polygon><polygon points="310.48 77.75 310.48 74.83 311.74 75.56 311.74 78.48 310.48 77.75" style="fill:#e0e0e0"></polygon><polygon points="312.37 78.84 312.37 74.47 313.64 75.2 313.64 79.57 312.37 78.84" style="fill:#e0e0e0"></polygon><polygon points="314.27 79.94 314.27 74.1 315.53 74.83 315.53 80.67 314.27 79.94" style="fill:#e0e0e0"></polygon><path d="M419.79,136.15a1.43,1.43,0,0,0-.47-.7l-4.72-2.73c-.31-.18-.55.17-.55.8v2.65a3,3,0,0,0,.21,1.09,1.77,1.77,0,0,0,.19.39.91.91,0,0,0,.28.3l4.72,2.74c.3.17.54-.18.54-.81v-2.65A3.17,3.17,0,0,0,419.79,136.15Zm-5.4.92a1.42,1.42,0,0,1-.08-.48v-2.65c0-.47.19-.75.42-.62l4.72,2.74a.71.71,0,0,1,.15.15l.06.13a1.66,1.66,0,0,1,.07.47v2.66c0,.46-.19.74-.41.61l-4.72-2.74A.53.53,0,0,1,414.39,137.07Z" style="fill:#455a64"></path><path d="M415.62,134.3v3.14l-.74-.43a.42.42,0,0,1-.14-.25v-2.33c0-.34.14-.55.3-.46Z" style="fill:#455a64"></path><polygon points="415.97 134.51 416.85 135.02 416.85 138.16 415.97 137.64 415.97 134.51" style="fill:#455a64"></polygon><polygon points="417.2 135.22 418.08 135.73 418.08 138.88 417.2 138.36 417.2 135.22" style="fill:#455a64"></polygon><path d="M419.31,136.66v2.26c0,.41-.22.54-.59.33l-.29-.17v-3.14l.7.41A.47.47,0,0,1,419.31,136.66Z" style="fill:#455a64"></path><path d="M420.17,137.35c.13.07.23.57.23,1.12V139c0,.55-.1.94-.23.87l-.24-.11v-2.5Z" style="fill:#455a64"></path><path d="M357.31,100.47a.51.51,0,0,1,0-.2.17.17,0,0,1,.07-.13l1.27-.81.1,0a.1.1,0,0,1,.1,0l.46.26a.27.27,0,0,1,.11.14.37.37,0,0,1,.05.2v5.84a.16.16,0,0,1-.05.14s-.06,0-.11,0l-.47-.28a.24.24,0,0,1-.11-.13.37.37,0,0,1-.05-.2v-4.47l-.83.53a.11.11,0,0,1-.12,0,.41.41,0,0,1-.11-.16Z" style="fill:#455a64"></path><path d="M360,102a.38.38,0,0,1,0-.2.18.18,0,0,1,.06-.13l1.28-.81.09,0a.14.14,0,0,1,.11,0l.46.27a.29.29,0,0,1,.11.13.53.53,0,0,1,.05.2v5.84a.21.21,0,0,1-.05.15.09.09,0,0,1-.11,0l-.48-.28a.33.33,0,0,1-.11-.14.46.46,0,0,1-.05-.2v-4.46l-.83.52a.09.09,0,0,1-.11,0,.5.5,0,0,1-.11-.16Z" style="fill:#455a64"></path><path d="M363.59,103.84a.33.33,0,0,1,.11.14.49.49,0,0,1,.05.2v.88a.21.21,0,0,1-.05.15.09.09,0,0,1-.11,0l-.55-.32a.29.29,0,0,1-.11-.13.53.53,0,0,1-.05-.2v-.89a.18.18,0,0,1,.05-.14.08.08,0,0,1,.11,0Zm0,3.17a.29.29,0,0,1,.11.13.53.53,0,0,1,.05.2v.89a.2.2,0,0,1-.05.14.08.08,0,0,1-.11,0l-.55-.31a.4.4,0,0,1-.11-.14.49.49,0,0,1-.05-.2v-.89a.2.2,0,0,1,.05-.14.09.09,0,0,1,.11,0Z" style="fill:#455a64"></path><path d="M366.28,106.39a.52.52,0,0,0,.23-.31,1.74,1.74,0,0,0,.05-.39,1.78,1.78,0,0,0-.15-.71,1.11,1.11,0,0,0-.49-.54c-.21-.12-.37-.13-.47,0a1,1,0,0,0-.21.5.2.2,0,0,1-.07.14.11.11,0,0,1-.11,0l-.46-.27a.34.34,0,0,1-.12-.14.34.34,0,0,1,0-.2,2.35,2.35,0,0,1,.13-.69,1.18,1.18,0,0,1,.32-.45.73.73,0,0,1,.46-.16,1.05,1.05,0,0,1,.57.17,2.4,2.4,0,0,1,.64.55,3.29,3.29,0,0,1,.44.74,4,4,0,0,1,.27.8,4.28,4.28,0,0,1,.08.76c0,.15,0,.29,0,.42a1.35,1.35,0,0,1-.08.36,1.08,1.08,0,0,1-.19.32,1.35,1.35,0,0,1-.33.28l-1.08.9,1.63.94a.33.33,0,0,1,.11.14.49.49,0,0,1,.05.2v.64a.18.18,0,0,1-.05.14.07.07,0,0,1-.11,0l-2.74-1.58a.27.27,0,0,1-.11-.14.46.46,0,0,1-.05-.2V108a.37.37,0,0,1,.06-.23s.07-.09.1-.1Z" style="fill:#455a64"></path><path d="M368.29,105a.16.16,0,0,1,0-.14.08.08,0,0,1,.11,0l2.21,1.27a.33.33,0,0,1,.11.14.48.48,0,0,1,0,.2v.64a.21.21,0,0,1,0,.15.08.08,0,0,1-.11,0l-1.65-1-.07,1.12a.81.81,0,0,1,.31.06l.26.13a2.79,2.79,0,0,1,.61.49,3.17,3.17,0,0,1,.49.69,3.49,3.49,0,0,1,.32.84,3.71,3.71,0,0,1,.12,1,2.85,2.85,0,0,1-.12.92,1,1,0,0,1-.33.49.63.63,0,0,1-.49.1,1.58,1.58,0,0,1-.6-.22,3.21,3.21,0,0,1-.7-.55,3.16,3.16,0,0,1-.48-.67,3.43,3.43,0,0,1-.28-.73,2.76,2.76,0,0,1-.11-.74.17.17,0,0,1,0-.15.1.1,0,0,1,.12,0l.47.27a.43.43,0,0,1,.11.12.66.66,0,0,1,.06.2,1.92,1.92,0,0,0,.11.4,1.33,1.33,0,0,0,.18.31,1.7,1.7,0,0,0,.22.24l.26.17a.45.45,0,0,0,.54,0,.78.78,0,0,0,.21-.65,1.64,1.64,0,0,0-.21-.79,1.58,1.58,0,0,0-.54-.6l-.28-.12h-.17l-.11,0s-.08,0-.14,0l-.54-.31a.27.27,0,0,1-.11-.14.46.46,0,0,1-.05-.2Z" style="fill:#455a64"></path></g><g style="opacity:0.15"><path d="M319,245.1l23.53,13.61a4.59,4.59,0,0,1,2.15,3.56c0,1.29-1,1.77-2.15,1.09L319,249.75a4.59,4.59,0,0,1-2.15-3.56C316.82,244.9,317.78,244.42,319,245.1Z"></path></g><path d="M312.8,235a2.48,2.48,0,0,1-.43-.74c-.13-.4-.05-.61.18-.47L417.31,294.3a2.14,2.14,0,0,1,.68,1c.13.4.05.61-.19.47L313.05,235.25A1,1,0,0,1,312.8,235Z" style="fill:#e0e0e0"></path><path d="M312.8,253.63a2.48,2.48,0,0,1-.43-.74c-.13-.4-.05-.61.18-.47L417.31,312.9a2.08,2.08,0,0,1,.68,1c.13.4.05.61-.19.47L313.05,253.85A1.19,1.19,0,0,1,312.8,253.63Z" style="fill:#e0e0e0"></path><path d="M401.8,293.06a4,4,0,0,1,1.82,3.16c0,1.16-.82,1.62-1.83,1a4.06,4.06,0,0,1-1.83-3.15C400,292.94,400.79,292.48,401.8,293.06Z" style="fill:#455a64"></path><path d="M400.61,297.63a8.88,8.88,0,0,1-.94-1.34,6.54,6.54,0,0,1-1-3.18c0-1.89,1.39-2.62,3.13-1.62L408,295a7.27,7.27,0,0,1,2.51,2.66,6.59,6.59,0,0,1,1,3.16c0,1.92-1.38,2.62-3.14,1.6l-6.12-3.5A6.39,6.39,0,0,1,400.61,297.63Zm-1.25-3.73a4.63,4.63,0,0,0,.65,2.19,5.22,5.22,0,0,0,1.82,1.88l6.13,3.5c1.54.9,2.8.26,2.8-1.4a4.47,4.47,0,0,0-.64-2.17A5.19,5.19,0,0,0,408.3,296l-6.15-3.55c-1.55-.89-2.79-.26-2.79,1.42Z" style="fill:#455a64"></path><g style="opacity:0.15"><path d="M319,263.69l36,20.78a4.6,4.6,0,0,1,2.15,3.57c0,1.28-1,1.77-2.15,1.08l-36-20.78a4.59,4.59,0,0,1-2.15-3.56C316.82,263.49,317.78,263,319,263.69Z"></path></g><path d="M312.8,272.22a2.48,2.48,0,0,1-.43-.74c-.13-.4-.05-.61.18-.47l104.76,60.48a2.14,2.14,0,0,1,.68,1c.13.4.05.61-.19.47L313.05,272.44A1,1,0,0,1,312.8,272.22Z" style="fill:#e0e0e0"></path><path d="M400.61,316.22a8.88,8.88,0,0,1-.94-1.34,6.54,6.54,0,0,1-1-3.18c0-1.89,1.39-2.62,3.13-1.61l6.15,3.54a7.22,7.22,0,0,1,2.51,2.67,6.56,6.56,0,0,1,1,3.15c0,1.92-1.38,2.62-3.14,1.61l-6.12-3.51A6.39,6.39,0,0,1,400.61,316.22Z" style="fill:#6C63FF"></path><path d="M408.38,315.4a4,4,0,0,1,1.82,3.16c0,1.16-.82,1.62-1.83,1a4,4,0,0,1-1.82-3.16C406.55,315.28,407.37,314.82,408.38,315.4Z" style="fill:#fafafa"></path><path d="M400.61,353.4a8.78,8.78,0,0,1-.94-1.33,6.6,6.6,0,0,1-1-3.18c0-1.9,1.39-2.63,3.13-1.62l6.15,3.54a7.3,7.3,0,0,1,2.51,2.67,6.56,6.56,0,0,1,1,3.16c0,1.91-1.38,2.61-3.14,1.6l-6.12-3.51A6.39,6.39,0,0,1,400.61,353.4Z" style="fill:#6C63FF"></path><path d="M408.38,352.59a4,4,0,0,1,1.82,3.15c0,1.16-.82,1.62-1.83,1a4,4,0,0,1-1.82-3.16C406.55,352.46,407.37,352,408.38,352.59Z" style="fill:#fafafa"></path><path d="M400.61,372a8.78,8.78,0,0,1-.94-1.33,6.6,6.6,0,0,1-1-3.18c0-1.9,1.39-2.63,3.13-1.62L408,369.4a7.38,7.38,0,0,1,2.51,2.67,6.56,6.56,0,0,1,1,3.16c0,1.91-1.38,2.61-3.14,1.6l-6.12-3.51A6.18,6.18,0,0,1,400.61,372Z" style="fill:#6C63FF"></path><path d="M408.38,371.18a4,4,0,0,1,1.82,3.15c0,1.17-.82,1.62-1.83,1a4,4,0,0,1-1.82-3.16C406.55,371.06,407.37,370.6,408.38,371.18Z" style="fill:#fafafa"></path><g style="opacity:0.15"><path d="M319,282.28l23.53,13.61a4.59,4.59,0,0,1,2.15,3.56c0,1.29-1,1.78-2.15,1.09L319,286.94a4.62,4.62,0,0,1-2.15-3.57C316.82,282.08,317.78,281.6,319,282.28Z"></path></g><path d="M312.8,290.81a2.48,2.48,0,0,1-.43-.74c-.13-.4-.05-.61.18-.47l104.76,60.48a2.14,2.14,0,0,1,.68,1c.13.4.05.61-.19.47L313.05,291A1,1,0,0,1,312.8,290.81Z" style="fill:#e0e0e0"></path><path d="M401.8,330.24a4.05,4.05,0,0,1,1.82,3.16c0,1.16-.82,1.62-1.83,1a4.06,4.06,0,0,1-1.83-3.15C400,330.12,400.79,329.66,401.8,330.24Z" style="fill:#455a64"></path><path d="M400.61,334.81a9.31,9.31,0,0,1-.94-1.33,6.6,6.6,0,0,1-1-3.18c0-1.9,1.39-2.63,3.13-1.62l6.15,3.54a7.22,7.22,0,0,1,2.51,2.67,6.56,6.56,0,0,1,1,3.16c0,1.91-1.38,2.61-3.14,1.6l-6.12-3.51A6.39,6.39,0,0,1,400.61,334.81Zm-1.25-3.73a4.63,4.63,0,0,0,.65,2.19,5.22,5.22,0,0,0,1.82,1.88l6.13,3.51c1.54.89,2.8.26,2.8-1.41a4.47,4.47,0,0,0-.64-2.17,5.19,5.19,0,0,0-1.82-1.87l-6.15-3.55c-1.55-.89-2.79-.25-2.79,1.42Z" style="fill:#455a64"></path><g style="opacity:0.15"><path d="M319,300.87l32,18.49a4.64,4.64,0,0,1,2.14,3.57c0,1.29-1,1.77-2.14,1.09l-32-18.49a4.6,4.6,0,0,1-2.15-3.57C316.82,300.68,317.78,300.19,319,300.87Z"></path></g><path d="M312.8,309.4a2.36,2.36,0,0,1-.43-.74c-.13-.4-.05-.61.18-.47l104.76,60.48a2.14,2.14,0,0,1,.68,1c.13.4.05.61-.19.47L313.05,309.62A1,1,0,0,1,312.8,309.4Z" style="fill:#e0e0e0"></path><path d="M312.8,309.62a2.48,2.48,0,0,1-.43-.74c-.13-.4-.05-.61.18-.47l104.76,60.48a2,2,0,0,1,.68,1c.13.4.05.61-.19.47L313.05,309.84A1.19,1.19,0,0,1,312.8,309.62Z" style="fill:#e0e0e0"></path><path d="M312.8,328.21a2.48,2.48,0,0,1-.43-.74c-.13-.4-.05-.61.18-.47l104.76,60.48a2.08,2.08,0,0,1,.68,1c.13.4.05.61-.19.47L313.05,328.43A1.19,1.19,0,0,1,312.8,328.21Z" style="fill:#e0e0e0"></path><path d="M312.8,328.43a2.41,2.41,0,0,1-.43-.75c-.13-.39-.05-.6.18-.47l104.76,60.48a2.12,2.12,0,0,1,.68,1c.13.39.05.6-.19.47L313.05,328.64A1.11,1.11,0,0,1,312.8,328.43Z" style="fill:#e0e0e0"></path><g style="opacity:0.15"><path d="M319,319.47l23.53,13.6a4.6,4.6,0,0,1,2.15,3.57c0,1.28-1,1.77-2.15,1.08L319,324.12a4.6,4.6,0,0,1-2.15-3.57C316.82,319.27,317.78,318.78,319,319.47Z"></path></g><ellipse cx="362.39" cy="178.69" rx="25.83" ry="45.65" transform="translate(-41.03 156.16) rotate(-23.05)" style="fill:#e0e0e0"></ellipse><path d="M368.25,197.66c0,5-2.62,7.51-5.86,5.64s-5.86-7.42-5.86-12.4,2.63-7.51,5.86-5.64S368.25,192.68,368.25,197.66Z" style="fill:#455a64"></path><path d="M362.39,170.49c-5.9-3.4-11-1.27-13.63,4.72a6.06,6.06,0,0,0,.62,4.83v0c1.11,2,2.76,2.43,3.41.88,1.82-4.26,5.44-5.76,9.59-3.36s7.78,8.09,9.59,14.44c.66,2.31,2.31,3.76,3.42,3h0c.87-.55,1.14-2.29.61-4.1C373.43,182,368.3,173.9,362.39,170.49Z" style="fill:#455a64"></path><path d="M362.39,156.05c-8.77-5.07-16.5-2.46-20.92,5.62-.65,1.19-.47,3.35.48,5.05l0,0c1.07,1.93,2.63,2.38,3.36,1,3.58-6.64,9.89-8.78,17.06-4.64s13.5,13.58,17.09,24.36c.73,2.2,2.28,3.54,3.35,2.86h0c.95-.6,1.14-2.54.49-4.48C378.93,172.69,371.19,161.13,362.39,156.05Z" style="fill:#455a64"></path><ellipse cx="391.14" cy="167.39" rx="10.49" ry="18.54" transform="translate(-34.31 166.52) rotate(-23.05)" style="fill:#6C63FF"></ellipse><path d="M386.58,172.8a.72.72,0,0,0,.84,0l9.12-6.89c.47-.35.47-1.35,0-2.24s-1.21-1.32-1.67-1l-9.13,6.9c-.46.35-.46,1.35,0,2.24A2.31,2.31,0,0,0,386.58,172.8Z" style="fill:#fafafa"></path><path d="M395.7,178.07a.74.74,0,0,0,.84,0c.47-.35.47-1.35,0-2.24l-9.12-17.43c-.46-.88-1.21-1.31-1.68-1s-.46,1.35,0,2.23l9.13,17.43A2.39,2.39,0,0,0,395.7,178.07Z" style="fill:#fafafa"></path><path d="M334,227.93a.64.64,0,0,1-.24-.27l-.11-.25-2.52-7.23v5.71a.3.3,0,0,1-.08.23.13.13,0,0,1-.17,0l-.72-.42a.48.48,0,0,1-.18-.21.87.87,0,0,1-.07-.31v-8.95a.34.34,0,0,1,.07-.22.14.14,0,0,1,.18,0l.63.36a.65.65,0,0,1,.23.26c0,.12.09.2.12.26l2.52,7.22V218.4a.29.29,0,0,1,.07-.22.13.13,0,0,1,.17,0l.73.42a.54.54,0,0,1,.17.21.66.66,0,0,1,.07.3v9a.29.29,0,0,1-.07.22.14.14,0,0,1-.17,0Z" style="fill:#455a64"></path><path d="M336,223a6,6,0,0,1,.19-1.35,2.13,2.13,0,0,1,.49-.91,1.19,1.19,0,0,1,.81-.33,2.25,2.25,0,0,1,1.16.37,4.51,4.51,0,0,1,1.14.95,5.72,5.72,0,0,1,.81,1.27,7.25,7.25,0,0,1,.49,1.47,8.44,8.44,0,0,1,.2,1.59c0,.18,0,.37,0,.59s0,.43,0,.66,0,.44,0,.65,0,.41,0,.58a5.85,5.85,0,0,1-.19,1.35,2.13,2.13,0,0,1-.49.91,1.14,1.14,0,0,1-.82.32,2.26,2.26,0,0,1-1.14-.37,4.28,4.28,0,0,1-1.16-.95,6.22,6.22,0,0,1-.81-1.27,7.05,7.05,0,0,1-.49-1.47,9.34,9.34,0,0,1-.19-1.58c0-.18,0-.37,0-.59v-1.31C336,223.4,336,223.21,336,223Zm4.08,2.43a4.49,4.49,0,0,0-.42-1.79,2.67,2.67,0,0,0-1-1.13c-.43-.25-.76-.26-1,0a1.83,1.83,0,0,0-.42,1.3c0,.35,0,.73,0,1.16s0,.83,0,1.19a4.39,4.39,0,0,0,.42,1.77,2.57,2.57,0,0,0,1,1.13c.41.24.75.26,1,0a1.78,1.78,0,0,0,.42-1.29c0-.35,0-.73,0-1.16S340.11,225.81,340.1,225.46Z" style="fill:#455a64"></path><path d="M348.42,233.2a.28.28,0,0,1,.09-.22.17.17,0,0,1,.17,0l.73.42a.48.48,0,0,1,.18.21.52.52,0,0,1,.06.3,3.84,3.84,0,0,1-.18,1,1.7,1.7,0,0,1-.48.74,1.31,1.31,0,0,1-.82.28,2.52,2.52,0,0,1-1.2-.4,4.38,4.38,0,0,1-1.1-.92,6.18,6.18,0,0,1-.81-1.26,7.06,7.06,0,0,1-.51-1.51,8.39,8.39,0,0,1-.22-1.66c0-.36,0-.75,0-1.18s0-.81,0-1.15a5.21,5.21,0,0,1,.22-1.41,2.07,2.07,0,0,1,.51-.92,1.21,1.21,0,0,1,.81-.32,2.22,2.22,0,0,1,1.1.35,4.64,4.64,0,0,1,1.2,1,6.24,6.24,0,0,1,1.48,3.77.26.26,0,0,1-.06.23.17.17,0,0,1-.18,0l-.73-.43a.46.46,0,0,1-.17-.19.8.8,0,0,1-.1-.32,3,3,0,0,0-.39-1.24,3,3,0,0,0-.44-.59,2.48,2.48,0,0,0-.61-.49,1.16,1.16,0,0,0-.61-.18.66.66,0,0,0-.44.19,1.28,1.28,0,0,0-.27.51,3.29,3.29,0,0,0-.11.75c0,.34,0,.73,0,1.15s0,.82,0,1.18a5.28,5.28,0,0,0,.11.89,4.81,4.81,0,0,0,.27.81,3.92,3.92,0,0,0,.44.7,2.34,2.34,0,0,0,.61.52,1.75,1.75,0,0,0,.61.22A.76.76,0,0,0,348,234a.68.68,0,0,0,.27-.31A1.42,1.42,0,0,0,348.42,233.2Z" style="fill:#455a64"></path><path d="M350.49,231.39a5.85,5.85,0,0,1,.19-1.35,2,2,0,0,1,.49-.91,1.19,1.19,0,0,1,.81-.34,2.25,2.25,0,0,1,1.16.37,4.34,4.34,0,0,1,1.14,1,6,6,0,0,1,.81,1.27,6.77,6.77,0,0,1,.49,1.48,8.43,8.43,0,0,1,.2,1.58c0,.18,0,.38,0,.59v1.32c0,.21,0,.4,0,.57a5.85,5.85,0,0,1-.19,1.35,2,2,0,0,1-.49.91,1.19,1.19,0,0,1-.82.33,2.36,2.36,0,0,1-1.14-.37,4.5,4.5,0,0,1-1.16-1,5.9,5.9,0,0,1-.81-1.26,7.14,7.14,0,0,1-.49-1.48,9.22,9.22,0,0,1-.19-1.57c0-.18,0-.38,0-.59s0-.44,0-.66,0-.45,0-.66S350.48,231.56,350.49,231.39Zm4.08,2.42a4.53,4.53,0,0,0-.42-1.79,2.61,2.61,0,0,0-1-1.13.84.84,0,0,0-1,0,1.77,1.77,0,0,0-.41,1.3c0,.34,0,.73,0,1.16s0,.82,0,1.18a4.28,4.28,0,0,0,.41,1.78,2.69,2.69,0,0,0,1,1.13.84.84,0,0,0,1,0,1.81,1.81,0,0,0,.42-1.3c0-.34,0-.73,0-1.16S354.58,234.17,354.57,233.81Z" style="fill:#455a64"></path><path d="M361.06,243.57a.6.6,0,0,1-.24-.26c-.05-.11-.09-.2-.11-.26l-2.52-7.22v5.71a.28.28,0,0,1-.08.22c0,.05-.1.05-.17,0l-.73-.42a.54.54,0,0,1-.17-.21.82.82,0,0,1-.07-.3v-9a.37.37,0,0,1,.07-.23.15.15,0,0,1,.17,0l.63.37a.55.55,0,0,1,.24.26l.12.26,2.51,7.22v-5.71a.28.28,0,0,1,.08-.22c0-.05.1-.05.17,0l.73.42a.44.44,0,0,1,.17.2.73.73,0,0,1,.07.31v8.95a.28.28,0,0,1-.07.22.12.12,0,0,1-.17,0Z" style="fill:#455a64"></path><path d="M367.42,247.25a.56.56,0,0,1-.23-.27,1.73,1.73,0,0,1-.12-.26l-2.52-7.22v5.71a.32.32,0,0,1-.07.22.12.12,0,0,1-.17,0l-.73-.42a.41.41,0,0,1-.17-.21.75.75,0,0,1-.08-.31v-8.95a.28.28,0,0,1,.08-.22c0-.05.1-.05.17,0l.63.36a.58.58,0,0,1,.23.26l.12.26,2.52,7.22v-5.71a.29.29,0,0,1,.07-.22.12.12,0,0,1,.17,0l.73.42a.46.46,0,0,1,.17.21.66.66,0,0,1,.07.3v9a.29.29,0,0,1-.07.22.13.13,0,0,1-.17,0Z" style="fill:#455a64"></path><path d="M373.89,249.25a.46.46,0,0,1,.17.21.66.66,0,0,1,.07.3v1a.29.29,0,0,1-.07.22.13.13,0,0,1-.17,0l-3.95-2.28a.46.46,0,0,1-.17-.21.66.66,0,0,1-.07-.3v-9a.29.29,0,0,1,.07-.22.13.13,0,0,1,.17,0l3.88,2.24a.54.54,0,0,1,.17.21.66.66,0,0,1,.07.3v1a.29.29,0,0,1-.07.22.12.12,0,0,1-.17,0l-2.91-1.68v2.21l2.71,1.56a.46.46,0,0,1,.17.21.66.66,0,0,1,.07.3v1a.29.29,0,0,1-.07.22.12.12,0,0,1-.17,0l-2.71-1.56v2.3Z" style="fill:#455a64"></path><path d="M379.07,250.89a.26.26,0,0,1,.09-.21.17.17,0,0,1,.17,0l.73.42a.54.54,0,0,1,.17.21.67.67,0,0,1,.07.31,3.76,3.76,0,0,1-.19,1,1.53,1.53,0,0,1-.48.75,1.23,1.23,0,0,1-.82.27,2.45,2.45,0,0,1-1.19-.4,4,4,0,0,1-1.1-.92,5.44,5.44,0,0,1-.81-1.26,6.88,6.88,0,0,1-.52-1.51,9.09,9.09,0,0,1-.22-1.66c0-.36,0-.75,0-1.18s0-.81,0-1.15a5.64,5.64,0,0,1,.22-1.41,2,2,0,0,1,.52-.91,1.19,1.19,0,0,1,.81-.33,2.25,2.25,0,0,1,1.1.35,4.59,4.59,0,0,1,1.19,1,5.67,5.67,0,0,1,.82,1.22,5.45,5.45,0,0,1,.48,1.31,6.47,6.47,0,0,1,.19,1.23c0,.12,0,.19-.07.23a.14.14,0,0,1-.17,0l-.73-.42a.53.53,0,0,1-.17-.19.68.68,0,0,1-.1-.33,2.9,2.9,0,0,0-.13-.61,3.52,3.52,0,0,0-.27-.63,3.27,3.27,0,0,0-.43-.59,2.59,2.59,0,0,0-.61-.48,1.12,1.12,0,0,0-.62-.19.63.63,0,0,0-.43.19,1.12,1.12,0,0,0-.27.51,2.82,2.82,0,0,0-.11.75c0,.35,0,.73,0,1.16s0,.81,0,1.17a4.42,4.42,0,0,0,.11.89,3.5,3.5,0,0,0,.27.81,3.28,3.28,0,0,0,.43.7,2.38,2.38,0,0,0,.62.52,1.46,1.46,0,0,0,.61.22.77.77,0,0,0,.44-.09.75.75,0,0,0,.27-.31A1.36,1.36,0,0,0,379.07,250.89Z" style="fill:#455a64"></path><path d="M385.55,248a.54.54,0,0,1,.17.21.82.82,0,0,1,.07.3v1a.34.34,0,0,1-.07.22.12.12,0,0,1-.17,0l-1.62-.93v7.59a.28.28,0,0,1-.08.22c0,.05-.1.05-.17,0l-.73-.42a.47.47,0,0,1-.17-.21.66.66,0,0,1-.07-.3v-7.59l-1.62-.94a.46.46,0,0,1-.17-.21.66.66,0,0,1-.07-.3v-1a.29.29,0,0,1,.07-.22.12.12,0,0,1,.17,0Z" style="fill:#455a64"></path><path d="M386.93,258.51a.54.54,0,0,1-.17-.21.66.66,0,0,1-.07-.3v-9a.29.29,0,0,1,.07-.22.14.14,0,0,1,.17,0l.73.42a.46.46,0,0,1,.17.21.67.67,0,0,1,.07.31v8.95a.29.29,0,0,1-.07.22.13.13,0,0,1-.17,0Z" style="fill:#455a64"></path><path d="M389.09,253.67a5.48,5.48,0,0,1,.2-1.35,2,2,0,0,1,.49-.91,1.14,1.14,0,0,1,.8-.33,2.25,2.25,0,0,1,1.16.37,4.34,4.34,0,0,1,1.14,1,5.72,5.72,0,0,1,.81,1.27,7.37,7.37,0,0,1,.5,1.48,8.23,8.23,0,0,1,.19,1.58c0,.18,0,.37,0,.59v1.32c0,.21,0,.4,0,.57a5.36,5.36,0,0,1-.19,1.35,2,2,0,0,1-.49.91,1.14,1.14,0,0,1-.82.32,2.16,2.16,0,0,1-1.14-.37,4.28,4.28,0,0,1-1.16-.95,5.56,5.56,0,0,1-.8-1.27,6.51,6.51,0,0,1-.49-1.47,8.43,8.43,0,0,1-.2-1.58c0-.17,0-.37,0-.59s0-.43,0-.66,0-.44,0-.65S389.08,253.85,389.09,253.67Zm4.08,2.43a4.49,4.49,0,0,0-.42-1.79,2.55,2.55,0,0,0-1-1.13c-.42-.24-.76-.26-1,0a1.78,1.78,0,0,0-.41,1.3c0,.35,0,.74,0,1.17s0,.82,0,1.18a4.28,4.28,0,0,0,.41,1.78,2.66,2.66,0,0,0,1,1.12c.42.24.76.26,1,.05a1.83,1.83,0,0,0,.42-1.3c0-.35,0-.73,0-1.16S393.18,256.46,393.17,256.1Z" style="fill:#455a64"></path><path d="M399.66,265.86a.6.6,0,0,1-.24-.26c-.05-.12-.09-.2-.11-.26l-2.52-7.22v5.71a.29.29,0,0,1-.08.22.13.13,0,0,1-.17,0l-.73-.42a.54.54,0,0,1-.17-.21.82.82,0,0,1-.07-.31v-9a.34.34,0,0,1,.07-.22.14.14,0,0,1,.17,0l.63.36a.6.6,0,0,1,.24.26c.05.12.09.2.11.26l2.53,7.22v-5.7a.3.3,0,0,1,.07-.23.13.13,0,0,1,.17,0l.73.42a.54.54,0,0,1,.17.21.67.67,0,0,1,.07.31V266a.29.29,0,0,1-.07.22.14.14,0,0,1-.17,0Z" style="fill:#455a64"></path><path d="M310.45,98.52,312,101l.14.26a.73.73,0,0,1,.07.31v.87c0,.06,0,.11,0,.13s-.06,0-.1,0l0,0,0-.06-2.33-3.76a1.34,1.34,0,0,1-.14-.26.78.78,0,0,1-.05-.28v-.43a.37.37,0,0,1,.05-.22.39.39,0,0,1,.14-.1L312,96.33H312a.24.24,0,0,1,.1.12.39.39,0,0,1,0,.18v.87a.28.28,0,0,1-.07.22,1.1,1.1,0,0,1-.14.11Z" style="fill:#455a64"></path><path d="M313.25,103.73a.35.35,0,0,1-.12-.16.46.46,0,0,1-.06-.22V96.74a.21.21,0,0,1,.06-.17.09.09,0,0,1,.12,0l2,1.13a2.63,2.63,0,0,1,.71.61,3.82,3.82,0,0,1,.46.77,5.24,5.24,0,0,1,.25.8,3.86,3.86,0,0,1,.07.71,2.44,2.44,0,0,1,0,.51,1.62,1.62,0,0,1-.13.34,1,1,0,0,1-.15.19.41.41,0,0,1-.13.08,3.8,3.8,0,0,1,.38.83,3.21,3.21,0,0,1,.17,1.1,2.73,2.73,0,0,1-.09.72,1.26,1.26,0,0,1-.27.53.67.67,0,0,1-.45.24,1.06,1.06,0,0,1-.62-.17Zm2.56-3.62a1.34,1.34,0,0,0-.16-.68,1.18,1.18,0,0,0-.5-.49L314,98.26v1.57l1.18.68c.23.14.4.17.5.09S315.81,100.37,315.81,100.11ZM314,102.86l1.23.71c.25.15.43.17.54.07a.67.67,0,0,0,.17-.53,1.62,1.62,0,0,0-.18-.74,1.33,1.33,0,0,0-.53-.55l-1.23-.71Z" style="fill:#455a64"></path><path d="M317.58,102.21a1.17,1.17,0,0,1,.12-.39.66.66,0,0,1,.27-.3.75.75,0,0,1,.43-.11,1.44,1.44,0,0,1,.6.21,2.58,2.58,0,0,1,.61.49,3,3,0,0,1,.47.68,3.47,3.47,0,0,1,.3.84,4.48,4.48,0,0,1,.11,1v3a.22.22,0,0,1-.05.16.09.09,0,0,1-.13,0l-.51-.29a.38.38,0,0,1-.12-.15.49.49,0,0,1-.06-.23v-.34a.59.59,0,0,1-.4.28,1,1,0,0,1-.67-.18,2.24,2.24,0,0,1-.51-.41,2.57,2.57,0,0,1-.38-.55,3,3,0,0,1-.23-.65,2.59,2.59,0,0,1-.09-.68c0-.48.11-.78.33-.92a1,1,0,0,1,.87,0l1.08.34a1.25,1.25,0,0,0-.18-.7,1.13,1.13,0,0,0-.44-.43.47.47,0,0,0-.26-.08.38.38,0,0,0-.18.09.21.21,0,0,1-.11,0l-.11,0-.62-.36a.29.29,0,0,1-.11-.13A.29.29,0,0,1,317.58,102.21Zm1.11,3.53a.78.78,0,0,0,.4.13.39.39,0,0,0,.3-.09.48.48,0,0,0,.17-.26.94.94,0,0,0,.06-.39V105l-.9-.28a.52.52,0,0,0-.39,0c-.08,0-.12.15-.12.3a.65.65,0,0,0,.14.4A1.21,1.21,0,0,0,318.69,105.74Z" style="fill:#455a64"></path><path d="M322.07,105.8c0,.1,0,.21,0,.35s0,.26,0,.37a3.29,3.29,0,0,0,.1.59,1.84,1.84,0,0,0,.18.47,1.54,1.54,0,0,0,.24.35,1.31,1.31,0,0,0,.27.22.85.85,0,0,0,.28.12.27.27,0,0,0,.2,0,.28.28,0,0,0,.13-.09.64.64,0,0,0,.11-.16l.09-.13a.09.09,0,0,1,.13,0l.51.29a.36.36,0,0,1,.13.16.64.64,0,0,1,.05.23,1.74,1.74,0,0,1-.1.46,1.06,1.06,0,0,1-.29.42.83.83,0,0,1-.51.19,1.45,1.45,0,0,1-.73-.23,2.32,2.32,0,0,1-.65-.57,3.71,3.71,0,0,1-.51-.81,4.21,4.21,0,0,1-.34-.94,5.68,5.68,0,0,1-.15-1c0-.13,0-.27,0-.42s0-.29,0-.41a2.86,2.86,0,0,1,.14-.82,1.48,1.48,0,0,1,.34-.55.75.75,0,0,1,.51-.22,1.12,1.12,0,0,1,.66.19,2.43,2.43,0,0,1,.73.62,3.61,3.61,0,0,1,.51.76,4.86,4.86,0,0,1,.29.76,3.35,3.35,0,0,1,.1.58.26.26,0,0,1-.05.17.1.1,0,0,1-.13,0l-.51-.29a.35.35,0,0,1-.13-.17l-.09-.23a2,2,0,0,0-.11-.29c0-.08-.08-.17-.13-.25a1.43,1.43,0,0,0-.2-.23,1.06,1.06,0,0,0-.28-.2.58.58,0,0,0-.27-.09.34.34,0,0,0-.24.06.52.52,0,0,0-.18.26A1.82,1.82,0,0,0,322.07,105.8Z" style="fill:#455a64"></path><path d="M326.08,109.09v1.77a.21.21,0,0,1-.06.16.09.09,0,0,1-.12,0l-.51-.29a.36.36,0,0,1-.13-.16.59.59,0,0,1-.05-.22v-6.72a.22.22,0,0,1,.05-.16.09.09,0,0,1,.13,0l.51.29a.38.38,0,0,1,.12.15.49.49,0,0,1,.06.23v3.22l1.11-.74a.46.46,0,0,1,.1-.05.15.15,0,0,1,.15,0l.68.39a.24.24,0,0,1,.12.14.45.45,0,0,1,0,.2.28.28,0,0,1,0,.09s0,0-.06.07l-1.55,1,1.7,3.49.05.13a.34.34,0,0,1,0,.1.21.21,0,0,1,0,.15.09.09,0,0,1-.12,0l-.64-.37a.44.44,0,0,1-.17-.16.62.62,0,0,1-.1-.17Z" style="fill:#455a64"></path></g></g><g id="freepik--speech-bubble--inject-3"><g id="freepik--speech-bubble--inject-3"><g id="freepik--Alert--inject-3"><path d="M85.55,57.11l14.46,25c1.39,2.41.25,4.39-2.54,4.39H67.41a2.93,2.93,0,0,1-2.54-4.39l14.46-25C81,54.15,83.84,54.15,85.55,57.11Z" style="fill:#6C63FF"></path><path d="M81.43,77.26h2.22a.76.76,0,0,0,.78-.65l.9-12.88a.63.63,0,0,0-.68-.65H80.44a.62.62,0,0,0-.69.61l.9,13A.74.74,0,0,0,81.43,77.26Z" style="fill:#fff"></path><path d="M82.54,83.5a2.27,2.27,0,1,0-2.27-2.27A2.25,2.25,0,0,0,82.54,83.5Z" style="fill:#fff"></path></g><path d="M53.9,73.3a28.69,28.69,0,1,1,57.37,0,28.43,28.43,0,0,1-8.38,20.23,13.15,13.15,0,0,0,9.62,4.86.5.5,0,0,1,.47.33.48.48,0,0,1-.16.55c-4.1,3.36-12.55,3.43-18.56.2A28.27,28.27,0,0,1,82.58,102,28.72,28.72,0,0,1,53.9,73.3ZM94.53,98.48c5.09,2.84,12.37,3.11,16.52.79a14.33,14.33,0,0,1-9.22-5.5.5.5,0,0,1,.06-.65,27.82,27.82,0,1,0-7.81,5.34.48.48,0,0,1,.2,0A.54.54,0,0,1,94.53,98.48Z" style="fill:#455a64"></path></g></g></svg>