<svg width="71" height="73" viewBox="0 0 71 73" fill="none" xmlns="http://www.w3.org/2000/svg">
<mask id="mask0_1117_412" style="mask-type:alpha" maskUnits="userSpaceOnUse" x="0" y="0" width="71" height="73">
<ellipse cx="35.5" cy="36.5" rx="35.5" ry="36.5" fill="#D9D9D9" fill-opacity="0.6"/>
</mask>
<g mask="url(#mask0_1117_412)">
<path d="M36 52.9011C42.3125 52.9011 47.4286 47.84 47.4286 41.5952C47.4286 35.3505 42.3125 30.2893 36 30.2893C29.6875 30.2893 24.5714 35.3505 24.5714 41.5952C24.5714 47.84 29.6875 52.9011 36 52.9011ZM44 55.7276H42.5089C40.5268 56.6286 38.3214 57.1409 36 57.1409C33.6786 57.1409 31.4821 56.6286 29.4911 55.7276H28C21.375 55.7276 16 61.0449 16 67.5988V71.2733C16 73.6139 17.9196 75.513 20.2857 75.513H51.7143C54.0804 75.513 56 73.6139 56 71.2733V67.5988C56 61.0449 50.625 55.7276 44 55.7276Z" fill="#C0C0C0"/>
</g>
</svg>
