<svg xmlns="http://www.w3.org/2000/svg"  viewBox="0 0 48 48" width="48px" height="48px"><path fill="#d03827" d="M44.284,23.443c-0.564-4.428-2.131-8.802-4.98-12.215C34.521,5.496,26.242,3.135,19.11,5.209	S6.284,13.551,4.554,20.841C3.348,25.92,4.02,31.525,6.831,35.907c1.031,1.606,2.356,3.018,3.877,4.159	c2.893,2.169,5.989,2.782,9.471,3.172c4.158,0.465,8.516,0.385,12.543-0.851c4.178-1.283,8.063-3.986,10.078-7.901	C44.522,31.139,44.761,27.186,44.284,23.443z M10.287,29.637c-1.032-2.529-0.993-5.466-0.209-8.095s2.271-4.97,4.025-6.997	c1.561-1.804,3.387-3.414,5.54-4.282c2.272-0.917,4.804-0.954,7.176-0.393c1.086,0.257,2.141,0.655,3.149,1.159	c-1.963,2.785-3.982,5.53-6.092,8.204c-2.041,2.587-4.149,5.119-6.257,7.652c-1.666,2.002-3.332,4.003-4.998,6.005	c-0.031,0.037-0.075,0.083-0.112,0.124C11.582,32.036,10.807,30.912,10.287,29.637z M35.922,33.315	c-3.476,4.924-9.399,6.143-14.718,4.491c-1.365-0.424-2.722-0.9-4.024-1.512c4.226-4.236,8.104-8.807,11.957-13.388	c2.075-2.467,4.15-4.934,6.225-7.401c0.819,1.069,1.517,2.24,2.032,3.511C39.264,23.627,38.755,29.301,35.922,33.315z"/><path fill="#010101" d="M24.646,43.997c-1.449,0-2.958-0.087-4.522-0.262c-3.886-0.435-6.867-1.133-9.715-3.269	c-1.594-1.195-2.938-2.638-3.998-4.289C3.622,31.832,2.769,26.2,4.067,20.726c1.807-7.611,7.656-13.891,14.903-15.997	c7.373-2.145,15.893,0.397,20.718,6.179c2.705,3.241,4.466,7.554,5.092,12.472l0,0c0.566,4.44,0.05,8.254-1.536,11.335	c-1.928,3.747-5.71,6.717-10.375,8.149C30.413,43.619,27.659,43.997,24.646,43.997z M24.366,4.972c-1.726,0-3.451,0.233-5.116,0.717	C12.343,7.697,6.765,13.69,5.04,20.957c-1.236,5.212-0.431,10.562,2.212,14.681c0.995,1.55,2.259,2.905,3.756,4.029	c2.667,1.999,5.508,2.659,9.227,3.075c4.685,0.526,8.835,0.245,12.342-0.832c4.409-1.354,7.974-4.143,9.779-7.651	c1.491-2.898,1.974-6.515,1.433-10.75v0c-0.602-4.729-2.285-8.864-4.867-11.958C35.43,7.366,29.899,4.972,24.366,4.972z M25.743,39.018c-1.521,0-3.098-0.241-4.688-0.735c-1.669-0.519-2.93-0.993-4.088-1.538c-0.147-0.069-0.252-0.206-0.279-0.366	c-0.028-0.161,0.023-0.324,0.139-0.439c4.087-4.097,7.819-8.473,11.927-13.357l6.226-7.401c0.099-0.116,0.248-0.174,0.395-0.178	c0.151,0.003,0.293,0.076,0.386,0.196c0.885,1.157,1.591,2.377,2.098,3.627c1.974,4.868,1.374,10.668-1.527,14.777	C33.849,37.12,30.014,39.018,25.743,39.018z M18.043,36.133c0.944,0.408,1.995,0.786,3.31,1.195	c5.625,1.747,11.053,0.101,14.161-4.302l0,0c2.709-3.837,3.266-9.264,1.417-13.824c-0.4-0.988-0.936-1.958-1.595-2.891l-5.816,6.915	C25.567,27.926,21.96,32.157,18.043,36.133z M12.521,33.5c-0.137,0-0.28-0.042-0.375-0.142c-1.025-1.082-1.807-2.27-2.321-3.532l0,0	c-1.021-2.5-1.101-5.493-0.226-8.427c0.73-2.444,2.119-4.86,4.127-7.181c1.883-2.177,3.758-3.622,5.73-4.419	c2.236-0.9,4.821-1.045,7.479-0.416c1.085,0.257,2.181,0.66,3.258,1.199c0.13,0.065,0.226,0.184,0.262,0.325	c0.035,0.141,0.007,0.291-0.077,0.41c-2.148,3.049-4.146,5.74-6.108,8.226c-2.027,2.569-4.154,5.125-6.211,7.597l-5.156,6.186	c-0.094,0.102-0.238,0.174-0.377,0.174C12.523,33.5,12.522,33.5,12.521,33.5z M10.75,29.448c0.403,0.989,0.99,1.931,1.747,2.808	l4.737-5.691c2.107-2.532,4.229-5.083,6.249-7.642c1.846-2.34,3.726-4.863,5.734-7.699c-0.836-0.38-1.68-0.671-2.514-0.869	c-2.454-0.58-4.831-0.452-6.873,0.371c-1.823,0.735-3.573,2.091-5.35,4.146c-1.915,2.213-3.235,4.505-3.924,6.813	C9.747,24.401,9.815,27.158,10.75,29.448L10.75,29.448z"/></svg>